<svg xmlns="http://www.w3.org/2000/svg" version="1.1" xmlns:xlink="http://www.w3.org/1999/xlink" xmlns:svgjs="http://svgjs.dev/svgjs" width="2000" height="1500" viewBox="0 0 2000 1500"><rect width="2000" height="1500" fill="#151515"></rect><g transform="matrix(0.75,0,0,0.75,249.090909090909,531.3988160522018)"><svg viewBox="0 0 396 116" data-background-color="#151515" preserveAspectRatio="xMidYMid meet" height="585" width="2000" xmlns="http://www.w3.org/2000/svg" xmlns:xlink="http://www.w3.org/1999/xlink"><g id="tight-bounds" transform="matrix(1,0,0,1,0.2400000000000091,-0.20458726394394944)"><svg viewBox="0 0 395.52 116.40917452788787" height="116.40917452788787" width="395.52"><g><svg viewBox="0 0 461.67828097125823 135.8808343075406" height="116.40917452788787" width="395.52"><g transform="matrix(1,0,0,1,64.18068097125834,18.779478547568928)"><svg viewBox="0 0 397.4975999999999 98.32187721240274" height="98.32187721240274" width="397.4975999999999"><g id="textblocktransform"><svg viewBox="0 0 397.4975999999999 98.32187721240274" height="98.32187721240274" width="397.4975999999999" id="textblock"><g><rect width="397.4975999999999" height="3.78783050127731" x="0" y="52.71366927973637" fill="#ffffff" opacity="1" stroke-width="0" stroke="transparent" fill-opacity="1" class="rect-qz-0" data-fill-palette-color="primary" rx="1%" id="qz-0" data-palette-color="#ffffff"></rect></g><g transform="matrix(1,0,0,1,0.9887999999999693,0)"><svg viewBox="0 0 395.52 48.25156528608509" height="48.25156528608509" width="395.52"><g transform="matrix(1,0,0,1,0,0)"><svg width="395.52" viewBox="-3.4 -41.1 444.02 55.05" height="48.25156528608509" data-palette-color="#ffffff"><path d="M13.3 0.3Q9.45 0.3 5.93-0.95 2.4-2.2 0.6-4.15L0.6-4.15 2.4-7.05Q4.15-5.15 7.25-4 10.35-2.85 13.65-2.85L13.65-2.85Q18.3-2.85 21.13-4.67 23.95-6.5 23.95-9.75L23.95-9.75Q23.95-11.5 22.9-12.6 21.85-13.7 20.25-14.38 18.65-15.05 15.9-15.85L15.9-15.85Q12.65-16.8 10.63-17.68 8.6-18.55 7.18-20.28 5.75-22 5.75-24.75L5.75-24.75Q5.75-28 7.53-30.38 9.3-32.75 12.48-34.02 15.65-35.3 19.75-35.3L19.75-35.3Q22.9-35.3 25.75-34.52 28.6-33.75 30.6-32.3L30.6-32.3 29.05-29.3Q27.15-30.7 24.7-31.43 22.25-32.15 19.55-32.15L19.55-32.15Q14.95-32.15 12.15-30.25 9.35-28.35 9.35-25.1L9.35-25.1Q9.35-23.3 10.45-22.15 11.55-21 13.18-20.33 14.8-19.65 17.55-18.85L17.55-18.85Q20.8-17.9 22.8-17.03 24.8-16.15 26.2-14.53 27.6-12.9 27.6-10.25L27.6-10.25Q27.6-6.95 25.78-4.58 23.95-2.2 20.73-0.95 17.5 0.3 13.3 0.3L13.3 0.3ZM33.1 0L38.3-26.3 41.85-26.3 36.65 0 33.1 0ZM41.6-32.05Q40.55-32.05 39.87-32.75 39.2-33.45 39.2-34.4L39.2-34.4Q39.2-35.55 39.97-36.33 40.75-37.1 41.95-37.1L41.95-37.1Q43-37.1 43.7-36.43 44.4-35.75 44.4-34.85L44.4-34.85Q44.4-33.65 43.6-32.85 42.8-32.05 41.6-32.05L41.6-32.05ZM64.59-26.5Q69.05-26.5 71.52-24.23 74-21.95 74-17.95L74-17.95Q74-16.55 73.69-14.95L73.69-14.95 70.69 0 67.15 0 70.15-15Q70.4-16.4 70.4-17.4L70.4-17.4Q70.4-20.25 68.67-21.78 66.94-23.3 63.59-23.3L63.59-23.3Q59.34-23.3 56.59-20.98 53.84-18.65 52.9-14.1L52.9-14.1 50.09 0 46.55 0 51.75-26.3 55.15-26.3 54.3-22.1Q58.05-26.5 64.59-26.5L64.59-26.5ZM106.69-26.3L110.09-26.3 105.49-3.2Q104.14 3.7 100.42 6.83 96.69 9.95 90.19 9.95L90.19 9.95Q86.49 9.95 83.52 8.93 80.54 7.9 78.49 6L78.49 6 80.59 3.3Q82.19 4.95 84.77 5.88 87.34 6.8 90.44 6.8L90.44 6.8Q95.39 6.8 98.14 4.5 100.89 2.2 101.84-2.6L101.84-2.6 102.44-5.5Q100.54-3.35 97.87-2.18 95.19-1 91.94-1L91.94-1Q86.69-1 83.52-3.85 80.34-6.7 80.34-11.6L80.34-11.6Q80.34-15.8 82.27-19.2 84.19-22.6 87.62-24.55 91.04-26.5 95.34-26.5L95.34-26.5Q99.09-26.5 101.79-24.98 104.49-23.45 105.59-20.5L105.59-20.5 106.69-26.3ZM92.64-4.15Q95.89-4.15 98.52-5.65 101.14-7.15 102.62-9.8 104.09-12.45 104.09-15.75L104.09-15.75Q104.09-19.35 101.79-21.38 99.49-23.4 95.39-23.4L95.39-23.4Q92.09-23.4 89.49-21.9 86.89-20.4 85.42-17.75 83.94-15.1 83.94-11.8L83.94-11.8Q83.94-8.2 86.24-6.18 88.54-4.15 92.64-4.15L92.64-4.15ZM132.84-26.5Q137.29-26.5 139.76-24.23 142.24-21.95 142.24-17.95L142.24-17.95Q142.24-16.55 141.94-14.95L141.94-14.95 138.94 0 135.39 0 138.39-15Q138.64-16.4 138.64-17.4L138.64-17.4Q138.64-20.25 136.91-21.78 135.19-23.3 131.84-23.3L131.84-23.3Q127.59-23.3 124.84-20.98 122.09-18.65 121.14-14.1L121.14-14.1 118.34 0 114.79 0 122.19-37.1 125.74-37.1 122.79-22.35Q126.44-26.5 132.84-26.5L132.84-26.5ZM190.69-15Q188.88-10.3 186.03-6.7L186.03-6.7 189.88-1.75 187.48 0.55 183.69-4.3Q178.58 0.3 171.53 0.3L171.53 0.3Q166.63 0.3 163.73-1.88 160.83-4.05 160.83-7.7L160.83-7.7Q160.83-11.2 163.41-13.95 165.98-16.7 171.78-19.55L171.78-19.55Q170.38-21.5 169.66-23.18 168.94-24.85 168.94-26.55L168.94-26.55Q168.94-30.55 171.63-32.9 174.33-35.25 178.63-35.25L178.63-35.25Q182.08-35.25 184.19-33.58 186.28-31.9 186.28-29.1L186.28-29.1Q186.28-25.95 184.03-23.68 181.78-21.4 176.48-18.85L176.48-18.85 184.13-9.1Q186.33-11.9 187.88-15.9L187.88-15.9 190.69-15ZM178.53-32.6Q175.69-32.6 173.96-31.05 172.23-29.5 172.23-26.95L172.23-26.95Q172.23-25.6 172.86-24.18 173.48-22.75 174.83-21L174.83-21Q178.13-22.55 179.91-23.75 181.69-24.95 182.44-26.13 183.19-27.3 183.19-28.85L183.19-28.85Q183.19-30.5 181.96-31.55 180.73-32.6 178.53-32.6L178.53-32.6ZM171.78-2.65Q177.58-2.65 181.88-6.6L181.88-6.6 173.48-17.4Q168.44-14.95 166.41-12.9 164.38-10.85 164.38-8.25L164.38-8.25Q164.38-5.7 166.33-4.17 168.28-2.65 171.78-2.65L171.78-2.65ZM223.73-15Q221.93-10.3 219.08-6.7L219.08-6.7 222.93-1.75 220.53 0.55 216.73-4.3Q211.63 0.3 204.58 0.3L204.58 0.3Q199.68 0.3 196.78-1.88 193.88-4.05 193.88-7.7L193.88-7.7Q193.88-11.2 196.46-13.95 199.03-16.7 204.83-19.55L204.83-19.55Q203.43-21.5 202.71-23.18 201.98-24.85 201.98-26.55L201.98-26.55Q201.98-30.55 204.68-32.9 207.38-35.25 211.68-35.25L211.68-35.25Q215.13-35.25 217.23-33.58 219.33-31.9 219.33-29.1L219.33-29.1Q219.33-25.95 217.08-23.68 214.83-21.4 209.53-18.85L209.53-18.85 217.18-9.1Q219.38-11.9 220.93-15.9L220.93-15.9 223.73-15ZM211.58-32.6Q208.73-32.6 207.01-31.05 205.28-29.5 205.28-26.95L205.28-26.95Q205.28-25.6 205.91-24.18 206.53-22.75 207.88-21L207.88-21Q211.18-22.55 212.96-23.75 214.73-24.95 215.48-26.13 216.23-27.3 216.23-28.85L216.23-28.85Q216.23-30.5 215.01-31.55 213.78-32.6 211.58-32.6L211.58-32.6ZM204.83-2.65Q210.63-2.65 214.93-6.6L214.93-6.6 206.53-17.4Q201.48-14.95 199.46-12.9 197.43-10.85 197.43-8.25L197.43-8.25Q197.43-5.7 199.38-4.17 201.33-2.65 204.83-2.65L204.83-2.65ZM252.28 0.3Q248.43 0.3 244.9-0.95 241.38-2.2 239.58-4.15L239.58-4.15 241.38-7.05Q243.13-5.15 246.23-4 249.33-2.85 252.63-2.85L252.63-2.85Q257.28-2.85 260.1-4.67 262.93-6.5 262.93-9.75L262.93-9.75Q262.93-11.5 261.88-12.6 260.83-13.7 259.23-14.38 257.63-15.05 254.88-15.85L254.88-15.85Q251.63-16.8 249.6-17.68 247.58-18.55 246.15-20.28 244.73-22 244.73-24.75L244.73-24.75Q244.73-28 246.5-30.38 248.28-32.75 251.45-34.02 254.63-35.3 258.73-35.3L258.73-35.3Q261.88-35.3 264.73-34.52 267.58-33.75 269.58-32.3L269.58-32.3 268.03-29.3Q266.13-30.7 263.68-31.43 261.23-32.15 258.53-32.15L258.53-32.15Q253.93-32.15 251.13-30.25 248.33-28.35 248.33-25.1L248.33-25.1Q248.33-23.3 249.43-22.15 250.53-21 252.15-20.33 253.78-19.65 256.53-18.85L256.53-18.85Q259.78-17.9 261.78-17.03 263.78-16.15 265.18-14.53 266.58-12.9 266.58-10.25L266.58-10.25Q266.58-6.95 264.75-4.58 262.93-2.2 259.7-0.95 256.48 0.3 252.28 0.3L252.28 0.3ZM297.77-26.3L301.32-26.3 296.07 0 292.67 0 293.52-4.15Q291.62-2.05 289.02-0.9 286.42 0.25 283.27 0.25L283.27 0.25Q279.92 0.25 277.32-1.1 274.72-2.45 273.27-4.98 271.82-7.5 271.82-10.9L271.82-10.9Q271.82-15.35 273.75-18.9 275.67-22.45 279.07-24.48 282.47-26.5 286.67-26.5L286.67-26.5Q290.42-26.5 292.97-25.03 295.52-23.55 296.67-20.8L296.67-20.8 297.77-26.3ZM284.02-2.9Q287.27-2.9 289.87-4.48 292.47-6.05 293.95-8.88 295.42-11.7 295.42-15.2L295.42-15.2Q295.42-19.05 293.15-21.23 290.87-23.4 286.77-23.4L286.77-23.4Q283.52-23.4 280.92-21.8 278.32-20.2 276.85-17.38 275.37-14.55 275.37-11.05L275.37-11.05Q275.37-7.2 277.65-5.05 279.92-2.9 284.02-2.9L284.02-2.9ZM324.02-26.5Q328.47-26.5 330.95-24.23 333.42-21.95 333.42-17.95L333.42-17.95Q333.42-16.55 333.12-14.95L333.12-14.95 330.12 0 326.57 0 329.57-15Q329.82-16.4 329.82-17.4L329.82-17.4Q329.82-20.25 328.1-21.78 326.37-23.3 323.02-23.3L323.02-23.3Q318.77-23.3 316.02-20.98 313.27-18.65 312.32-14.1L312.32-14.1 309.52 0 305.97 0 311.17-26.3 314.57-26.3 313.72-22.1Q317.47-26.5 324.02-26.5L324.02-26.5ZM367.77-37.1L371.32-37.1 363.92 0 360.52 0 361.37-4.15Q359.47-2.05 356.87-0.9 354.27 0.25 351.12 0.25L351.12 0.25Q347.77 0.25 345.17-1.1 342.57-2.45 341.12-4.98 339.67-7.5 339.67-10.9L339.67-10.9Q339.67-15.35 341.59-18.9 343.52-22.45 346.92-24.48 350.32-26.5 354.52-26.5L354.52-26.5Q358.22-26.5 360.8-25.03 363.37-23.55 364.52-20.8L364.52-20.8 367.77-37.1ZM351.87-2.9Q355.12-2.9 357.72-4.48 360.32-6.05 361.8-8.88 363.27-11.7 363.27-15.2L363.27-15.2Q363.27-19.05 361-21.23 358.72-23.4 354.62-23.4L354.62-23.4Q351.37-23.4 348.77-21.8 346.17-20.2 344.69-17.38 343.22-14.55 343.22-11.05L343.22-11.05Q343.22-7.2 345.5-5.05 347.77-2.9 351.87-2.9L351.87-2.9ZM391.87-26.5Q396.32-26.5 398.79-24.23 401.27-21.95 401.27-17.95L401.27-17.95Q401.27-16.55 400.97-14.95L400.97-14.95 397.97 0 394.42 0 397.42-15Q397.67-16.4 397.67-17.4L397.67-17.4Q397.67-20.25 395.94-21.78 394.22-23.3 390.87-23.3L390.87-23.3Q386.62-23.3 383.87-20.98 381.12-18.65 380.17-14.1L380.17-14.1 377.37 0 373.82 0 381.22-37.1 384.77-37.1 381.82-22.35Q385.47-26.5 391.87-26.5L391.87-26.5ZM433.06-26.3L436.62-26.3 431.37 0 427.96 0 428.81-4.2Q425.12 0.25 418.67 0.25L418.67 0.25Q414.26 0.25 411.79-2.02 409.31-4.3 409.31-8.35L409.31-8.35Q409.31-9.75 409.62-11.3L409.62-11.3 412.62-26.3 416.17-26.3 413.17-11.3Q412.92-9.9 412.92-8.95L412.92-8.95Q412.92-6.05 414.59-4.5 416.26-2.95 419.62-2.95L419.62-2.95Q423.81-2.95 426.56-5.3 429.31-7.65 430.26-12.15L430.26-12.15 433.06-26.3Z" opacity="1" transform="matrix(1,0,0,1,0,0)" fill="#ffffff" class="wordmark-text-0" data-fill-palette-color="primary" id="text-0"></path></svg></g></svg></g><g transform="matrix(1,0,0,1,3.5,60.96360377466497)"><svg viewBox="0 0 388.52 37.35827343773777" height="37.35827343773777" width="388.52"><g transform="matrix(1,0,0,1,0,0)"><svg width="388.52" viewBox="-1.6600000000000001 -42.84 578.52 56.53" height="37.35827343773777" data-palette-color="#ffffff"><path d="M19.56-8.59L24.19-8.59 24.19 0 2.34 0 2.34-8.59 7.06-8.59 7.06-30.25 2.34-30.25 2.34-38.84 34.4-38.84 34.4-23.14 27.34-23.14 25.81-30.25 19.56-30.25 19.56-22.9 25-22.9 25-16.65 19.56-16.65 19.56-8.59ZM55.27-7.35L55.27 0 36.52 0 36.52-7.35 39.67-7.35 39.67-18.6 36.52-18.6 36.52-25.2 51.36-26.66 51.36-22.41Q52.15-23.63 53.66-24.6 55.17-25.56 56.89-26.11 58.62-26.66 59.98-26.66L59.98-26.66 59.98-16.31Q57.13-17.26 55.27-17.26L55.27-17.26Q52.93-17.26 52.15-15.91 51.36-14.55 51.36-12.35L51.36-12.35 51.36-7.35 55.27-7.35ZM77.75 0.44L77.75 0.44Q73.31 0.44 70.01-1.2L70.01-1.2Q66.67-2.81 64.81-5.93 62.96-9.06 62.96-13.35L62.96-13.35Q62.96-17.63 64.81-20.61L64.81-20.61Q66.67-23.61 70.01-25.13 73.36-26.66 77.75-26.66L77.75-26.66Q82.27-26.66 85.6-25.1 88.94-23.54 90.77-20.57 92.6-17.6 92.6-13.35L92.6-13.35Q92.6-9.06 90.77-5.93L90.77-5.93Q88.91-2.81 85.55-1.18 82.2 0.44 77.75 0.44ZM77.75-6.69L77.75-6.69Q79.37-6.69 80.15-8.28L80.15-8.28Q80.9-9.81 80.9-13.35L80.9-13.35Q80.9-16.6 80.16-18.05 79.41-19.51 77.75-19.51L77.75-19.51Q76.17-19.51 75.41-18.05 74.65-16.6 74.65-13.35L74.65-13.35Q74.65-9.89 75.43-8.28L75.43-8.28Q76.22-6.69 77.75-6.69ZM128.97-16.6L128.97-16.6 128.97-7.06 132.37-7.06 132.37 0 117.25 0 117.25-16.65Q117.25-17.7 116.58-18.51 115.91-19.31 114.96-19.31L114.96-19.31Q113.18-19.31 112.71-17.53L112.71-17.53Q112.22-15.7 112.22-12.4L112.22-12.4 112.22-7.06 112.27-7.06 112.27 0 97.01 0 97.01-7.06 100.55-7.06 100.55-18.6 97.01-18.6 97.01-25.2 112.22-26.66 112.22-23Q113.91-25 116.06-25.83 118.21-26.66 120.92-26.66L120.92-26.66Q128.97-26.66 128.97-16.6ZM147.11 0.44L147.11 0.44Q137.71 0.44 137.71-9.35L137.71-9.35 137.71-18.99 133.8-18.99 133.8-26.15 137.71-26.15 137.71-31.74 149.4-34.35 149.4-26.15 154.09-26.15 154.09-18.99 149.4-18.99 149.4-10.21Q149.4-9.11 150.23-8.37 151.06-7.64 152.31-7.64L152.31-7.64Q153.21-7.64 154.09-7.79L154.09-7.79 154.09-1Q150.87 0.44 147.11 0.44ZM185.19-16.55L191.44-16.55 191.44 0 158.65 0 158.65-8.59 163.37-8.59 163.37-30.25 158.65-30.25 158.65-38.84 191.44-38.84 191.44-23.39 185.19-23.39 182.85-30.25 175.87-30.25 175.87-23.9 182.12-23.9 182.12-17.5 175.87-17.5 175.87-8.59 182.85-8.59 185.19-16.55ZM226.18-16.6L226.18-16.6 226.18-7.06 229.57-7.06 229.57 0 214.46 0 214.46-16.65Q214.46-17.7 213.79-18.51 213.12-19.31 212.17-19.31L212.17-19.31Q210.39-19.31 209.92-17.53L209.92-17.53Q209.43-15.7 209.43-12.4L209.43-12.4 209.43-7.06 209.48-7.06 209.48 0 194.22 0 194.22-7.06 197.76-7.06 197.76-18.6 194.22-18.6 194.22-25.2 209.43-26.66 209.43-23Q211.12-25 213.27-25.83 215.41-26.66 218.12-26.66L218.12-26.66Q226.18-26.66 226.18-16.6ZM243.32 0.44L243.32 0.44Q239.78 0.44 237.19-1.44L237.19-1.44Q234.63-3.32 233.3-6.48 231.96-9.64 231.96-13.45L231.96-13.45Q231.96-16.89 233.33-19.97L233.33-19.97Q234.7-23 237.2-24.83 239.7-26.66 243.12-26.66L243.12-26.66Q245.61-26.66 247.39-25.85 249.18-25.05 250.71-23.46L250.71-23.46 250.71-29.86 246.81-29.86 246.81-36.5 262.46-38.11 262.46-7.35 265.56-7.35 265.56 0 250.52 0 250.52-3.15Q249.32-1.54 247.47-0.57 245.61 0.39 243.32 0.44ZM247.22-6.69L247.22-6.69Q248.37-6.69 249.3-7.24 250.23-7.79 250.71-8.54L250.71-8.54 250.71-17.8Q250.15-18.46 249.21-18.98 248.27-19.51 247.22-19.51L247.22-19.51Q245.32-19.51 244.12-17.96 242.93-16.41 242.93-13.45L242.93-13.45Q242.93-10.45 244.03-8.57 245.12-6.69 247.22-6.69ZM299.64 0L299.64 0 281.69 0 281.69-8.59 285.6-8.59 285.6-30.25 281.69-30.25 281.69-38.84 299.68-38.84Q310.28-38.84 315.91-33.95 321.54-29.05 321.54-19.46L321.54-19.46Q321.54-10.11 315.94-5.05 310.35 0 299.64 0ZM299.64-30.25L298.1-30.25 298.1-8.59 299.64-8.59Q302.37-8.59 304.1-10 305.84-11.4 306.67-13.87 307.5-16.33 307.5-19.46L307.5-19.46Q307.5-24.24 305.64-27.25 303.79-30.25 299.64-30.25L299.64-30.25ZM340.58 0.44L340.58 0.44Q336.03 0.44 332.69-1.25L332.69-1.25Q329.32-2.91 327.53-6.01 325.73-9.11 325.73-13.26L325.73-13.26Q325.73-17.36 327.49-20.39L327.49-20.39Q329.22-23.39 332.4-25.02 335.57-26.66 339.84-26.66L339.84-26.66Q343.77-26.66 346.78-25.12L346.78-25.12Q349.78-23.56 351.43-20.7 353.08-17.85 353.08-14.04L353.08-14.04Q353.08-12.72 352.68-11.55L352.68-11.55 337.48-11.55Q337.48-9.25 339.21-7.87 340.94-6.49 343.38-6.49L343.38-6.49Q345.24-6.49 347.46-7.14 349.68-7.79 351.93-9.16L351.93-9.16 352.34-9.01 352.34-2.44Q349.83-1 347.18-0.28 344.53 0.44 340.58 0.44ZM337.48-16.55L337.48-16.55 337.48-15.84 343.73-15.84 343.73-16.36Q343.73-18.09 342.93-19.35 342.14-20.61 340.58-20.61L340.58-20.61Q339.28-20.61 338.38-19.32 337.48-18.04 337.48-16.55ZM390.48-18.6L387.18-18.6 379.51 0 367.06 0 358.91-18.6 355.32-18.6 355.32-26.15 374.07-26.15 374.07-18.6 371.36-18.6 375.61-6.3 380.32-18.6 377.22-18.6 377.22-26.15 390.48-26.15 390.48-18.6ZM407.88 0.44L407.88 0.44Q403.34 0.44 399.99-1.25L399.99-1.25Q396.63-2.91 394.83-6.01 393.04-9.11 393.04-13.26L393.04-13.26Q393.04-17.36 394.79-20.39L394.79-20.39Q396.53-23.39 399.7-25.02 402.88-26.66 407.15-26.66L407.15-26.66Q411.08-26.66 414.08-25.12L414.08-25.12Q417.08-23.56 418.73-20.7 420.38-17.85 420.38-14.04L420.38-14.04Q420.38-12.72 419.99-11.55L419.99-11.55 404.78-11.55Q404.78-9.25 406.51-7.87 408.25-6.49 410.69-6.49L410.69-6.49Q412.54-6.49 414.76-7.14 416.99-7.79 419.23-9.16L419.23-9.16 419.65-9.01 419.65-2.44Q417.13-1 414.48-0.28 411.84 0.44 407.88 0.44ZM404.78-16.55L404.78-16.55 404.78-15.84 411.03-15.84 411.03-16.36Q411.03-18.09 410.24-19.35 409.44-20.61 407.88-20.61L407.88-20.61Q406.59-20.61 405.68-19.32 404.78-18.04 404.78-16.55ZM440.86-7.35L444.62-7.35 444.62 0 424.87 0 424.87-7.35 429.17-7.35 429.17-29.86 424.87-29.86 424.87-36.5 440.86-38.11 440.86-7.35ZM463.12 0.44L463.12 0.44Q458.68 0.44 455.38-1.2L455.38-1.2Q452.04-2.81 450.18-5.93 448.33-9.06 448.33-13.35L448.33-13.35Q448.33-17.63 450.18-20.61L450.18-20.61Q452.04-23.61 455.38-25.13 458.73-26.66 463.12-26.66L463.12-26.66Q467.64-26.66 470.97-25.1 474.31-23.54 476.14-20.57 477.97-17.6 477.97-13.35L477.97-13.35Q477.97-9.06 476.14-5.93L476.14-5.93Q474.28-2.81 470.92-1.18 467.57 0.44 463.12 0.44ZM463.12-6.69L463.12-6.69Q464.74-6.69 465.52-8.28L465.52-8.28Q466.27-9.81 466.27-13.35L466.27-13.35Q466.27-16.6 465.53-18.05 464.78-19.51 463.12-19.51L463.12-19.51Q461.54-19.51 460.78-18.05 460.02-16.6 460.02-13.35L460.02-13.35Q460.02-9.89 460.8-8.28L460.8-8.28Q461.59-6.69 463.12-6.69ZM499.38 2.34L499.38 9.69 481.38 9.69 481.38 2.29 484.53 2.29 484.53-18.6 481.38-18.6 481.38-25.15 496.23-26.66 496.23-22.51Q497.47-24.24 499.45-25.45 501.43-26.66 504.09-26.66L504.09-26.66Q507.58-26.66 510.05-24.85L510.05-24.85Q512.51-23.05 513.74-20 514.98-16.94 514.98-13.21L514.98-13.21Q514.98-9.5 513.76-6.35L513.76-6.35Q512.54-3.25 510.06-1.4 507.58 0.44 504.04 0.44L504.04 0.44Q501.57 0.44 499.56-0.52 497.55-1.49 496.23-2.91L496.23-2.91 496.23 2.34 499.38 2.34ZM499.74-6.69L499.74-6.69Q501.94-6.69 502.99-8.45 504.04-10.21 504.04-13.06L504.04-13.06Q504.04-15.99 502.89-17.75 501.74-19.51 499.89-19.51L499.89-19.51Q498.64-19.51 497.64-18.88 496.64-18.26 496.23-17.26L496.23-17.26 496.23-8.79Q497.33-6.69 499.74-6.69ZM533.11 0.44L533.11 0.44Q528.57 0.44 525.23-1.25L525.23-1.25Q521.86-2.91 520.06-6.01 518.27-9.11 518.27-13.26L518.27-13.26Q518.27-17.36 520.03-20.39L520.03-20.39Q521.76-23.39 524.94-25.02 528.11-26.66 532.38-26.66L532.38-26.66Q536.31-26.66 539.32-25.12L539.32-25.12Q542.32-23.56 543.97-20.7 545.61-17.85 545.61-14.04L545.61-14.04Q545.61-12.72 545.22-11.55L545.22-11.55 530.01-11.55Q530.01-9.25 531.75-7.87 533.48-6.49 535.92-6.49L535.92-6.49Q537.78-6.49 540-7.14 542.22-7.79 544.47-9.16L544.47-9.16 544.88-9.01 544.88-2.44Q542.37-1 539.72-0.28 537.07 0.44 533.11 0.44ZM530.01-16.55L530.01-16.55 530.01-15.84 536.26-15.84 536.26-16.36Q536.26-18.09 535.47-19.35 534.68-20.61 533.11-20.61L533.11-20.61Q531.82-20.61 530.92-19.32 530.01-18.04 530.01-16.55ZM568.15-7.35L568.15 0 549.4 0 549.4-7.35 552.55-7.35 552.55-18.6 549.4-18.6 549.4-25.2 564.24-26.66 564.24-22.41Q565.02-23.63 566.53-24.6 568.05-25.56 569.77-26.11 571.49-26.66 572.86-26.66L572.86-26.66 572.86-16.31Q570-17.26 568.15-17.26L568.15-17.26Q565.8-17.26 565.02-15.91 564.24-14.55 564.24-12.35L564.24-12.35 564.24-7.35 568.15-7.35Z" opacity="1" transform="matrix(1,0,0,1,0,0)" fill="#ffffff" class="slogan-text-1" data-fill-palette-color="secondary" id="text-1"></path></svg></g></svg></g></svg></g></svg></g><g><svg viewBox="0 0 54.26489431869993 135.8808343075406" height="135.8808343075406" width="54.26489431869993"><g><svg xmlns="http://www.w3.org/2000/svg" xmlns:xlink="http://www.w3.org/1999/xlink" version="1.1" x="0" y="0" viewBox="50.1 37 310.3 777" style="enable-background:new 0 0 396 850.9;" xml:space="preserve" height="135.8808343075406" width="54.26489431869993" class="icon-icon-0" data-fill-palette-color="accent" id="icon-0"><path d="M109 814l-58.9 0v-777h310.3v777L109 814zM317.8 810.9h39.5v-48.4h-39.5V810.9zM109 810.9h192.4v-27.7H109V810.9zM95.5 810.9H106v-48.2H95.5V810.9zM53 810.9h39.5v-48.4H53V810.9zM304.3 810.8h10.4v-48.2h-10.4V810.8zM109 780.3h192.4v-7.1H109V780.3zM109 770.1h192.4v-7.6H109V770.1zM53 759.5h304.3v-10.5H53V759.5zM317.8 746.1h39.5v-86.9h-39.5V746.1zM109 746.1h192.4v-18.8H109V746.1zM95.5 746.1H106l0-86.6H95.5V746.1zM53 746.1h39.5v-86.9H53V746.1zM304.3 745.9h10.4v-86.5h-10.4V745.9zM109 724.2h192.4v-3.7H109V724.2zM282 717.5h19c-0.7-9.5-7.6-18.3-19-25.5V717.5zM263.2 717.5H279v-27.2c-4.7-2.6-10-5-15.8-7.1V717.5zM244.4 717.5h15.8v-35.4c-4.9-1.6-10.2-3.1-15.8-4.2V717.5zM225.6 717.5h15.8v-40.2c-5.1-1-10.3-1.8-15.8-2.3V717.5zM206.8 717.5h15.8v-42.8c-5.1-0.4-10.4-0.7-15.8-0.7V717.5zM188 717.5h15.8v-43.6c-5.4 0-10.7 0.3-15.8 0.7V717.5zM169.2 717.5H185v-42.6c-5.4 0.6-10.7 1.3-15.8 2.3V717.5zM150.4 717.5h15.8v-39.6c-5.6 1.2-10.8 2.6-15.8 4.2V717.5zM131.7 717.5h15.8v-34.4c-5.8 2.1-11.1 4.5-15.8 7.1V717.5zM109.7 717.5h19V692C117.3 699.2 110.3 708 109.7 717.5zM109 673.9v34.5c4.1-9 13.3-17.1 27-23.7 10.1-4.8 21.9-8.5 34.8-10.8H109zM239.9 673.9c12.9 2.3 24.7 6 34.8 10.8 13.3 6.4 22.4 14.3 26.6 23v-33.8H239.9zM109 670.9h192.4v-11.5H109V670.9zM317.8 656.1h39.5v-51.6h-39.5V656.1zM304.3 656.1h10.4v-51.6h0l0-564.3h-10.4V656.1zM267 656.1h34.4v-51.6H267V656.1zM229.1 656.1H264v-51.6h-34.9V656.1zM187.4 656.1h38.7v-51.6h-38.7V656.1zM149.5 656.1h34.9v-51.6h-34.9V656.1zM109 656.1h37.6v-51.6H109V656.1zM95.5 656.1H106V40.2H95.5V656.1zM53 656.1h39.5v-51.6H53V656.1zM317.8 601.5h39.5v-5.4h-39.5V601.5zM109 601.5h192.4v-5.3H109V601.5zM53 601.5h39.5v-5.4H53V601.5zM266.8 593.2h34.6v-51.5h-34.6V593.2zM228.9 593.2h34.9v-51.5h-34.9V593.2zM187.2 593.2h38.7v-51.5h-38.7V593.2zM149.3 593.2h34.9v-51.5h-34.9V593.2zM109 593.2h37.3v-51.5H109V593.2zM317.8 593.2h39.5v-51.5h-39.5V593.2zM53 593.2h39.5v-51.5H53V593.2zM317.8 538.7h39.5v-5.4h-39.5V538.7zM109 538.7h192.4v-5.4H109V538.7zM53 538.7h39.5v-5.4H53V538.7zM317.8 530.3h39.5v-51.5h-39.5V530.3zM266.8 530.3h34.6v-51.5h-34.6V530.3zM228.9 530.3h34.9v-51.5h-34.9V530.3zM187.2 530.3h38.7v-51.5h-38.7V530.3zM149.3 530.3h34.9v-51.5h-34.9V530.3zM109 530.3h37.3v-51.5H109V530.3zM53 530.3h39.5v-51.5H53V530.3zM317.8 475.8h39.5v-5.4h-39.5V475.8zM109 475.8h192.4v-5.4H109V475.8zM53 475.8h39.5v-5.4H53V475.8zM317.8 467.4h39.5v-51.5h-39.5V467.4zM266.8 467.4h34.6v-51.5h-34.6V467.4zM228.9 467.4h34.9v-51.5h-34.9V467.4zM187.2 467.4h38.7v-51.5h-38.7V467.4zM149.3 467.4h34.9v-51.5h-34.9V467.4zM109 467.4h37.3v-51.5H109V467.4zM53 467.4h39.5v-51.5H53V467.4zM317.8 412.9h39.5v-5.4h-39.5V412.9zM109 412.9h192.4v-5.3H109V412.9zM53 412.9h39.5v-5.4H53V412.9zM266.8 404.6h34.6v-51.5h-34.6V404.6zM228.9 404.6h34.9v-51.5h-34.9V404.6zM187.2 404.6h38.7v-51.5h-38.7V404.6zM149.3 404.6h34.9v-51.5h-34.9V404.6zM109 404.6h37.3v-51.5H109V404.6zM317.8 404.6h39.5v-51.5h-39.5V404.6zM53 404.6h39.5v-51.5H53V404.6zM317.8 350.1h39.5v-5.4h-39.5V350.1zM109 350.1h192.4v-5.4H109V350.1zM53 350.1h39.5v-5.4H53V350.1zM266.8 341.7h34.6v-51.5h-34.6V341.7zM228.9 341.7h34.9v-51.5h-34.9V341.7zM187.2 341.7h38.7v-51.5h-38.7V341.7zM149.3 341.7h34.9v-51.5h-34.9V341.7zM109 341.7h37.3v-51.5H109V341.7zM317.8 341.7h39.5v-51.5h-39.5V341.7zM53 341.7h39.5v-51.5H53V341.7zM317.8 287.2h39.5v-5.4h-39.5V287.2zM109 287.2h192.4v-5.3H109V287.2zM53 287.2h39.5v-5.4H53V287.2zM266.8 278.8h34.6v-51.5h-34.6V278.8zM228.9 278.8h34.9v-51.5h-34.9V278.8zM187.2 278.8h38.7v-51.5h-38.7V278.8zM149.3 278.8h34.9v-51.5h-34.9V278.8zM109 278.8h37.3v-51.5H109V278.8zM317.8 278.8h39.5v-51.5h-39.5V278.8zM53 278.8h39.5v-51.5H53V278.8zM317.8 224.3h39.5V219h-39.5V224.3zM109 224.3h192.4V219H109V224.3zM53 224.3h39.5V219H53V224.3zM266.8 216h34.6v-51.5h-34.6V216zM228.9 216h34.9v-51.5h-34.9V216zM187.2 216h38.7v-51.5h-38.7V216zM149.3 216h34.9v-51.5h-34.9V216zM109 216h37.3v-51.5H109V216zM317.8 216h39.5v-51.5h-39.5V216zM53 216h39.5v-51.5H53V216zM317.8 161.4h39.5v-5.4h-39.5V161.4zM109 161.4h192.4v-4.9H109V161.4zM53 161.4h39.5v-5.4H53V161.4zM317.8 153.1h39.5v-51.5h-39.5V153.1zM266.8 153.1h34.4c-1-16.4-14.2-31-34.4-40.8V153.1zM228.9 153.1h34.9v-42.2c-10.2-4.6-22-8-34.9-9.9V153.1zM187.2 153.1h38.7v-52.5c-6.6-0.8-13.4-1.3-20.4-1.3-6.3 0-12.4 0.4-18.3 1V153.1zM149.3 153.1h34.9v-52.4c-12.8 1.7-24.6 4.9-34.9 9.2V153.1zM109.8 153.1h36.5v-41.8C124.9 121.1 110.8 136.2 109.8 153.1zM53 153.1h39.5v-51.5H53V153.1zM109 99.3v43.4c7.4-20.4 32.6-36.9 65.3-43.4H109zM236.6 99.3c31.9 6.3 56.6 22.1 64.7 41.7V99.3H236.6zM317.8 98.6h39.5v-5.4h-39.5V98.6zM53 98.6h39.5v-5.4H53V98.6zM205.5 96.3h95.9V69.5H109v26.9H205.5zM317.8 90.2h39.5V39.9h-39.5V90.2zM53 90.2h39.5V39.9H53V90.2zM109 66.5h192.4V39.9H109V66.5zM87.5 806h-28v-38.6h28V806zM62.5 803h22v-32.6h-22V803zM351.5 805.9h-28v-38.6h28V805.9zM326.5 802.9h22v-32.6h-22V802.9zM291.8 743.3c-3.7 0-6.8-3.1-6.8-6.8 0-3.7 3-6.8 6.8-6.8 3.7 0 6.8 3 6.8 6.8C298.6 740.2 295.5 743.3 291.8 743.3zM291.8 732.7c-2.1 0-3.8 1.7-3.8 3.8 0 2.1 1.7 3.8 3.8 3.8 2.1 0 3.8-1.7 3.8-3.8C295.6 734.4 293.9 732.7 291.8 732.7zM272.4 743.3c-3.7 0-6.8-3.1-6.8-6.8 0-3.7 3-6.8 6.8-6.8 3.7 0 6.8 3 6.8 6.8C279.1 740.2 276.1 743.3 272.4 743.3zM272.4 732.7c-2.1 0-3.8 1.7-3.8 3.8 0 2.1 1.7 3.8 3.8 3.8 2.1 0 3.8-1.7 3.8-3.8C276.1 734.4 274.4 732.7 272.4 732.7zM253.1 743.3c-3.7 0-6.8-3.1-6.8-6.8 0-3.7 3-6.8 6.8-6.8 3.7 0 6.8 3 6.8 6.8C259.9 740.2 256.8 743.3 253.1 743.3zM253.1 732.7c-2.1 0-3.8 1.7-3.8 3.8 0 2.1 1.7 3.8 3.8 3.8 2.1 0 3.8-1.7 3.8-3.8C256.9 734.4 255.2 732.7 253.1 732.7zM233.7 743.3c-3.7 0-6.8-3.1-6.8-6.8 0-3.7 3-6.8 6.8-6.8s6.8 3 6.8 6.8C240.4 740.2 237.4 743.3 233.7 743.3zM233.7 732.7c-2.1 0-3.8 1.7-3.8 3.8 0 2.1 1.7 3.8 3.8 3.8s3.8-1.7 3.8-3.8C237.4 734.4 235.7 732.7 233.7 732.7zM214.6 743.3c-3.7 0-6.8-3.1-6.8-6.8 0-3.7 3-6.8 6.8-6.8 3.7 0 6.8 3 6.8 6.8C221.3 740.2 218.3 743.3 214.6 743.3zM214.6 732.7c-2.1 0-3.8 1.7-3.8 3.8 0 2.1 1.7 3.8 3.8 3.8 2.1 0 3.8-1.7 3.8-3.8C218.3 734.4 216.6 732.7 214.6 732.7zM195.1 743.3c-3.7 0-6.8-3.1-6.8-6.8 0-3.7 3-6.8 6.8-6.8s6.8 3 6.8 6.8C201.9 740.2 198.9 743.3 195.1 743.3zM195.1 732.7c-2.1 0-3.8 1.7-3.8 3.8 0 2.1 1.7 3.8 3.8 3.8s3.8-1.7 3.8-3.8C198.9 734.4 197.2 732.7 195.1 732.7zM177.5 743.3c-3.7 0-6.8-3.1-6.8-6.8 0-3.7 3-6.8 6.8-6.8 3.7 0 6.8 3 6.8 6.8C184.2 740.2 181.2 743.3 177.5 743.3zM177.5 732.7c-2.1 0-3.8 1.7-3.8 3.8 0 2.1 1.7 3.8 3.8 3.8 2.1 0 3.8-1.7 3.8-3.8C181.2 734.4 179.5 732.7 177.5 732.7zM158 743.3c-3.7 0-6.8-3.1-6.8-6.8 0-3.7 3-6.8 6.8-6.8 3.7 0 6.8 3 6.8 6.8C164.8 740.2 161.8 743.3 158 743.3zM158 732.7c-2.1 0-3.8 1.7-3.8 3.8 0 2.1 1.7 3.8 3.8 3.8 2.1 0 3.8-1.7 3.8-3.8C161.8 734.4 160.1 732.7 158 732.7zM138.9 743.3c-3.7 0-6.8-3.1-6.8-6.8 0-3.7 3-6.8 6.8-6.8 3.7 0 6.8 3 6.8 6.8C145.7 740.2 142.7 743.3 138.9 743.3zM138.9 732.7c-2.1 0-3.8 1.7-3.8 3.8 0 2.1 1.7 3.8 3.8 3.8 2.1 0 3.8-1.7 3.8-3.8C142.7 734.4 141 732.7 138.9 732.7zM119.5 743.3c-3.7 0-6.8-3.1-6.8-6.8 0-3.7 3-6.8 6.8-6.8 3.7 0 6.8 3 6.8 6.8C126.3 740.2 123.2 743.3 119.5 743.3zM119.5 732.7c-2.1 0-3.8 1.7-3.8 3.8 0 2.1 1.7 3.8 3.8 3.8 2.1 0 3.8-1.7 3.8-3.8C123.3 734.4 121.6 732.7 119.5 732.7zM87.5 739.5h-28v-73.6h28V739.5zM62.5 736.5h22v-67.6h-22V736.5zM351.5 739.4h-28v-73.6h28V739.4zM326.5 736.4h22v-67.6h-22V736.4zM354.6 650.1h-30.5V609h30.5V650.1zM341.2 647.1h10.4v-16h-10.4V647.1zM327.1 647.1h11.1v-16h-11.1V647.1zM341.2 628h10.4v-16h-10.4V628zM327.1 628h11.1v-16h-11.1V628zM88.7 650.1H58.2V609h30.5V650.1zM75.4 647.1h10.4v-16H75.4V647.1zM61.2 647.1h11.1v-16H61.2V647.1zM75.4 628h10.4v-16H75.4V628zM61.2 628h11.1v-16H61.2V628zM353.9 588.2h-30.5v-41.1h30.5V588.2zM340.5 585.2h10.4v-16h-10.4V585.2zM326.3 585.2h11.1v-16h-11.1V585.2zM340.5 566.1h10.4v-16h-10.4V566.1zM326.3 566.1h11.1v-16h-11.1V566.1zM87.7 588.2H57.1v-41.1h30.5V588.2zM74.3 585.2h10.4v-16H74.3V585.2zM60.1 585.2h11.1v-16H60.1V585.2zM74.3 566.1h10.4v-16H74.3V566.1zM60.1 566.1h11.1v-16H60.1V566.1zM354.2 525h-30.5V484h30.5V525zM340.8 522h10.4v-16h-10.4V522zM326.7 522h11.1v-16h-11.1V522zM340.8 503h10.4v-16h-10.4V503zM326.7 503h11.1v-16h-11.1V503zM87.7 525H57.1V484h30.5V525zM74.3 522h10.4v-16H74.3V522zM60.1 522h11.1v-16H60.1V522zM74.3 503h10.4v-16H74.3V503zM60.1 503h11.1v-16H60.1V503zM353.9 463.1h-30.5v-41.1h30.5V463.1zM340.5 460.1h10.4v-16h-10.4V460.1zM326.3 460.1h11.1v-16h-11.1V460.1zM340.5 441.1h10.4v-16h-10.4V441.1zM326.3 441.1h11.1v-16h-11.1V441.1zM87.7 463.1H57.1v-41.1h30.5V463.1zM74.3 460.1h10.4v-16H74.3V460.1zM60.1 460.1h11.1v-16H60.1V460.1zM74.3 441.1h10.4v-16H74.3V441.1zM60.1 441.1h11.1v-16H60.1V441.1zM353.9 399.5h-30.5v-41.1h30.5V399.5zM340.5 396.5h10.4v-16h-10.4V396.5zM326.3 396.5h11.1v-16h-11.1V396.5zM340.5 377.5h10.4v-16h-10.4V377.5zM326.3 377.5h11.1v-16h-11.1V377.5zM87.7 399.5H57.1v-41.1h30.5V399.5zM74.3 396.5h10.4v-16H74.3V396.5zM60.1 396.5h11.1v-16H60.1V396.5zM74.3 377.5h10.4v-16H74.3V377.5zM60.1 377.5h11.1v-16H60.1V377.5zM353.5 336.9H323v-41.1h30.5V336.9zM340.1 333.9h10.4v-16h-10.4V333.9zM326 333.9h11.1v-16H326V333.9zM340.1 314.9h10.4v-16h-10.4V314.9zM326 314.9h11.1v-16H326V314.9zM87.7 336.9H57.1v-41.1h30.5V336.9zM74.3 333.9h10.4v-16H74.3V333.9zM60.1 333.9h11.1v-16H60.1V333.9zM74.3 314.9h10.4v-16H74.3V314.9zM60.1 314.9h11.1v-16H60.1V314.9zM352.8 274.3h-30.5v-41.1h30.5V274.3zM339.4 271.3h10.4v-16h-10.4V271.3zM325.2 271.3h11.1v-16h-11.1V271.3zM339.4 252.3h10.4v-16h-10.4V252.3zM325.2 252.3h11.1v-16h-11.1V252.3zM87.7 274.3H57.1v-41.1h30.5V274.3zM74.3 271.3h10.4v-16H74.3V271.3zM60.1 271.3h11.1v-16H60.1V271.3zM74.3 252.3h10.4v-16H74.3V252.3zM60.1 252.3h11.1v-16H60.1V252.3zM352.8 210.7h-30.5v-41.1h30.5V210.7zM339.4 207.7h10.4v-16h-10.4V207.7zM325.2 207.7h11.1v-16h-11.1V207.7zM339.4 188.7h10.4v-16h-10.4V188.7zM325.2 188.7h11.1v-16h-11.1V188.7zM88 210.7H57.5v-41.1H88V210.7zM74.6 207.7H85v-16H74.6V207.7zM60.5 207.7h11.1v-16H60.5V207.7zM74.6 188.7H85v-16H74.6V188.7zM60.5 188.7h11.1v-16H60.5V188.7zM353.1 148.1h-30.5V107h30.5V148.1zM339.7 145.1h10.4v-16h-10.4V145.1zM325.6 145.1h11.1v-16h-11.1V145.1zM339.7 126h10.4v-16h-10.4V126zM325.6 126h11.1v-16h-11.1V126zM88 148.1H57.5V107H88V148.1zM74.6 145.1H85v-16H74.6V145.1zM60.5 145.1h11.1v-16H60.5V145.1zM74.6 126H85v-16H74.6V126zM60.5 126h11.1v-16H60.5V126zM291.2 89.5c-3.7 0-6.8-3.1-6.8-6.8 0-3.7 3-6.8 6.8-6.8s6.8 3 6.8 6.8C298 86.5 295 89.5 291.2 89.5zM291.2 78.9c-2.1 0-3.8 1.7-3.8 3.8 0 2.1 1.7 3.8 3.8 3.8s3.8-1.7 3.8-3.8C295 80.6 293.3 78.9 291.2 78.9zM271.8 89.5c-3.7 0-6.8-3.1-6.8-6.8 0-3.7 3-6.8 6.8-6.8s6.8 3 6.8 6.8C278.6 86.5 275.5 89.5 271.8 89.5zM271.8 78.9c-2.1 0-3.8 1.7-3.8 3.8 0 2.1 1.7 3.8 3.8 3.8s3.8-1.7 3.8-3.8C275.6 80.6 273.9 78.9 271.8 78.9zM252.5 89.5c-3.7 0-6.8-3.1-6.8-6.8 0-3.7 3-6.8 6.8-6.8s6.8 3 6.8 6.8C259.3 86.5 256.3 89.5 252.5 89.5zM252.5 78.9c-2.1 0-3.8 1.7-3.8 3.8 0 2.1 1.7 3.8 3.8 3.8s3.8-1.7 3.8-3.8C256.3 80.6 254.6 78.9 252.5 78.9zM233.1 89.5c-3.7 0-6.8-3.1-6.8-6.8 0-3.7 3-6.8 6.8-6.8 3.7 0 6.8 3 6.8 6.8C239.9 86.5 236.8 89.5 233.1 89.5zM233.1 78.9c-2.1 0-3.8 1.7-3.8 3.8 0 2.1 1.7 3.8 3.8 3.8 2.1 0 3.8-1.7 3.8-3.8C236.9 80.6 235.2 78.9 233.1 78.9zM214 89.5c-3.7 0-6.8-3.1-6.8-6.8 0-3.7 3-6.8 6.8-6.8s6.8 3 6.8 6.8C220.8 86.5 217.7 89.5 214 89.5zM214 78.9c-2.1 0-3.8 1.7-3.8 3.8 0 2.1 1.7 3.8 3.8 3.8s3.8-1.7 3.8-3.8C217.8 80.6 216.1 78.9 214 78.9zM194.6 89.5c-3.7 0-6.8-3.1-6.8-6.8 0-3.7 3-6.8 6.8-6.8 3.7 0 6.8 3 6.8 6.8C201.3 86.5 198.3 89.5 194.6 89.5zM194.6 78.9c-2.1 0-3.8 1.7-3.8 3.8 0 2.1 1.7 3.8 3.8 3.8 2.1 0 3.8-1.7 3.8-3.8C198.3 80.6 196.6 78.9 194.6 78.9zM176.9 89.5c-3.7 0-6.8-3.1-6.8-6.8 0-3.7 3-6.8 6.8-6.8s6.8 3 6.8 6.8C183.7 86.5 180.6 89.5 176.9 89.5zM176.9 78.9c-2.1 0-3.8 1.7-3.8 3.8 0 2.1 1.7 3.8 3.8 3.8s3.8-1.7 3.8-3.8C180.7 80.6 179 78.9 176.9 78.9zM157.5 89.5c-3.7 0-6.8-3.1-6.8-6.8 0-3.7 3-6.8 6.8-6.8s6.8 3 6.8 6.8C164.2 86.5 161.2 89.5 157.5 89.5zM157.5 78.9c-2.1 0-3.8 1.7-3.8 3.8 0 2.1 1.7 3.8 3.8 3.8s3.8-1.7 3.8-3.8C161.2 80.6 159.5 78.9 157.5 78.9zM138.4 89.5c-3.7 0-6.8-3.1-6.8-6.8 0-3.7 3-6.8 6.8-6.8 3.7 0 6.8 3 6.8 6.8C145.1 86.5 142.1 89.5 138.4 89.5zM138.4 78.9c-2.1 0-3.8 1.7-3.8 3.8 0 2.1 1.7 3.8 3.8 3.8 2.1 0 3.8-1.7 3.8-3.8C142.1 80.6 140.4 78.9 138.4 78.9zM118.9 89.5c-3.7 0-6.8-3.1-6.8-6.8 0-3.7 3-6.8 6.8-6.8s6.8 3 6.8 6.8C125.7 86.5 122.7 89.5 118.9 89.5zM118.9 78.9c-2.1 0-3.8 1.7-3.8 3.8 0 2.1 1.7 3.8 3.8 3.8s3.8-1.7 3.8-3.8C122.7 80.6 121 78.9 118.9 78.9zM352.8 85h-30.5V43.9h30.5V85zM339.4 82h10.4v-16h-10.4V82zM325.2 82h11.1v-16h-11.1V82zM339.4 62.9h10.4v-16h-10.4V62.9zM325.2 62.9h11.1v-16h-11.1V62.9zM88 85H57.5V43.9H88V85zM74.6 82H85v-16H74.6V82zM60.5 82h11.1v-16H60.5V82zM74.6 62.9H85v-16H74.6V62.9zM60.5 62.9h11.1v-16H60.5V62.9zM290.5 59.4c-3.7 0-6.8-3-6.8-6.8 0-3.8 3-6.8 6.8-6.8s6.8 3.1 6.8 6.8C297.3 56.4 294.3 59.4 290.5 59.4zM290.5 48.8c-2.1 0-3.8 1.7-3.8 3.8 0 2.1 1.7 3.8 3.8 3.8s3.8-1.7 3.8-3.8C294.3 50.5 292.6 48.8 290.5 48.8zM271.1 59.4c-3.7 0-6.8-3-6.8-6.8 0-3.8 3-6.8 6.8-6.8 3.7 0 6.8 3.1 6.8 6.8C277.9 56.4 274.8 59.4 271.1 59.4zM271.1 48.8c-2.1 0-3.8 1.7-3.8 3.8 0 2.1 1.7 3.8 3.8 3.8 2.1 0 3.8-1.7 3.8-3.8C274.9 50.5 273.2 48.8 271.1 48.8zM251.8 59.4c-3.7 0-6.8-3-6.8-6.8 0-3.8 3-6.8 6.8-6.8s6.8 3.1 6.8 6.8C258.6 56.4 255.6 59.4 251.8 59.4zM251.8 48.8c-2.1 0-3.8 1.7-3.8 3.8 0 2.1 1.7 3.8 3.8 3.8s3.8-1.7 3.8-3.8C255.6 50.5 253.9 48.8 251.8 48.8zM232.4 59.4c-3.7 0-6.8-3-6.8-6.8 0-3.8 3-6.8 6.8-6.8 3.7 0 6.8 3.1 6.8 6.8C239.2 56.4 236.1 59.4 232.4 59.4zM232.4 48.8c-2.1 0-3.8 1.7-3.8 3.8 0 2.1 1.7 3.8 3.8 3.8 2.1 0 3.8-1.7 3.8-3.8C236.2 50.5 234.5 48.8 232.4 48.8zM213.3 59.4c-3.7 0-6.8-3-6.8-6.8 0-3.8 3-6.8 6.8-6.8s6.8 3.1 6.8 6.8C220.1 56.4 217 59.4 213.3 59.4zM213.3 48.8c-2.1 0-3.8 1.7-3.8 3.8 0 2.1 1.7 3.8 3.8 3.8s3.8-1.7 3.8-3.8C217.1 50.5 215.4 48.8 213.3 48.8zM193.8 59.4c-3.7 0-6.8-3-6.8-6.8 0-3.8 3-6.8 6.8-6.8 3.7 0 6.8 3.1 6.8 6.8C200.6 56.4 197.6 59.4 193.8 59.4zM193.8 48.8c-2.1 0-3.8 1.7-3.8 3.8 0 2.1 1.7 3.8 3.8 3.8 2.1 0 3.8-1.7 3.8-3.8C197.6 50.5 195.9 48.8 193.8 48.8zM176.2 59.4c-3.7 0-6.8-3-6.8-6.8 0-3.8 3-6.8 6.8-6.8s6.8 3.1 6.8 6.8C183 56.4 179.9 59.4 176.2 59.4zM176.2 48.8c-2.1 0-3.8 1.7-3.8 3.8 0 2.1 1.7 3.8 3.8 3.8s3.8-1.7 3.8-3.8C180 50.5 178.3 48.8 176.2 48.8zM156.7 59.4c-3.7 0-6.8-3-6.8-6.8 0-3.8 3-6.8 6.8-6.8 3.7 0 6.8 3.1 6.8 6.8C163.5 56.4 160.5 59.4 156.7 59.4zM156.7 48.8c-2.1 0-3.8 1.7-3.8 3.8 0 2.1 1.7 3.8 3.8 3.8 2.1 0 3.8-1.7 3.8-3.8C160.5 50.5 158.8 48.8 156.7 48.8zM137.6 59.4c-3.7 0-6.8-3-6.8-6.8 0-3.8 3-6.8 6.8-6.8s6.8 3.1 6.8 6.8C144.4 56.4 141.4 59.4 137.6 59.4zM137.6 48.8c-2.1 0-3.8 1.7-3.8 3.8 0 2.1 1.7 3.8 3.8 3.8s3.8-1.7 3.8-3.8C141.4 50.5 139.7 48.8 137.6 48.8zM118.2 59.4c-3.7 0-6.8-3-6.8-6.8 0-3.8 3-6.8 6.8-6.8s6.8 3.1 6.8 6.8C125 56.4 121.9 59.4 118.2 59.4zM118.2 48.8c-2.1 0-3.8 1.7-3.8 3.8 0 2.1 1.7 3.8 3.8 3.8s3.8-1.7 3.8-3.8C122 50.5 120.3 48.8 118.2 48.8z" fill="#ffffff" data-fill-palette-color="accent"></path></svg></g></svg></g></svg></g><defs></defs></svg><rect width="395.52" height="116.40917452788787" fill="none" stroke="none" visibility="hidden"></rect></g></svg></g></svg>